<?xml version="1.0" encoding="utf-8"?>
<!-- Generator: Adobe Illustrator 24.1.0, SVG Export Plug-In . SVG Version: 6.00 Build 0)  -->
<svg version="1.1" id="Layer_1" xmlns="http://www.w3.org/2000/svg" xmlns:xlink="http://www.w3.org/1999/xlink" x="0px" y="0px"
	 viewBox="0 0 518 53" style="enable-background:new 0 0 518 53;" xml:space="preserve">
<style type="text/css">
	.st0{enable-background:new    ;}
	.st1{fill:#FFFFFF;}
</style>
<g class="st0">
	<path class="st1" d="M1.8,48.5c-0.9-0.6-1.5-1.5-1.5-2.4c1.5-7.9,12.7-31,18.1-39.6c3,0,4.1,1.8,4.1,3.4c0,4-4.4,10-7.8,13.7
		c-0.9,1.7-3,5.6-5,10c5.3-1.2,12-8.5,15-13.6c0.6,0,1.6,0.8,1.1,2.3c-1.8,5.2-9.2,14.9-13.8,15c0.2,0.5,0.4,1.2,0.4,2
		c0.5,5.4-3.5,13.1-7.5,13.1C3.1,52.4,1.8,49.9,1.8,48.5z M8.6,35.8c-2.1,4.5-4,9.1-4.9,12C6.7,46,10,40.3,8.5,36.3
		C8.5,36.1,8.5,36,8.6,35.8z"/>
	<path class="st1" d="M24.8,37c-1.1-0.5-2.1-1.7-2.1-3.6c0-2,1.8-5.5,5.2-10.5c-0.9-0.2-1.7-0.5-2.4-0.9c-1.1,1.9-4,6.3-6.2,8.9
		c0,0.8-1.8-1.1-0.5-3.1c1.9-2.2,3.6-5,5-7c-0.7-0.7-1.1-1.4-1.1-2c0-1.6,2.2-5.5,4-5.5c1.6,0,2.9,1.2,2.9,2c-0.2,0.5-1,2-1.6,3
		c1.9,0.6,3.2,0.8,5.3,0.8c0.6-0.2,1.8,1.2,1.7,2.1c-1.3,2-5,8.5-7.1,13.2c6.3-2.3,12-10.6,14.8-14.6c0.1,0,1.8,0.9,1.1,2.1
		c-3.2,5.8-11.3,18.4-15.5,18.4C26.2,40.3,25.2,38.7,24.8,37z"/>
	<path class="st1" d="M49.1,36c-2,2.5-4.3,4.3-6.4,4.3c-2.5,0-3.2-1.4-3.4-3c-1.9-0.4-3-2-3-4.8c0-7.1,6.9-16,12.4-16
		c1.5,0,2.8,0.5,3.1,2c1.6,0.8,2.7,2.4,2.7,4.6c0,2.5-1.1,5.7-2.7,8.8c3.2-2.5,7.9-7.4,10.7-12.2c0.5,0.2,1.7,1,1.1,2.3
		c-2.2,5.2-8.3,14.4-12.9,14.4C50.2,36.5,49.7,36.3,49.1,36z M45.4,23.9c-2.2,3-4.2,7.4-4.7,12.5c2.1-0.4,4-1.8,5.5-3.7
		c-0.8-1.6-1.3-3.6-1.3-6.2C44.9,25.8,45.1,24.8,45.4,23.9z M48.5,29.2C50.1,25.9,51,22.1,51,19c-1.4,0.6-2.8,2.9-2.9,5.8
		C48.1,25.7,48.1,27.5,48.5,29.2z"/>
	<path class="st1" d="M76.3,35.3c-0.1-0.4-0.3-0.9-0.4-1.4c-0.2-2.2,2.3-7.1,4.5-11c-3.7,3.5-7.6,7.8-11.6,15.6
		c-1.7,0-2.6-1.3-2.6-3.8c0-2.5,2.2-7.3,4.4-11.3c-4.1,3.6-9.5,11.1-11.9,16.7c-1.7,0-2.9-2.2-2.9-4.2c0-1.8,1.7-5.6,2.8-8
		c2.6-5.8,3.9-8.7,5.3-10.5c2.7,0,3.9,1.2,3.9,2.4c0,0.8-1.2,3.4-2.7,6.2c4-4.6,7.8-8.5,8.9-8.5c1.6,0,2.9,1,2.9,1.9
		c-0.7,1.4-1.5,3.2-2.8,6.2c4.9-5.5,9.2-8.2,10.6-8.2c1.6,0,2.6,1.8,2.6,2.7c-2.4,4-5.1,9.1-7.2,14.4c6-2.7,11.3-10.6,14.1-14.5
		c0.2,0.1,1.8,1,1.1,2.1c-3.2,5.8-11.6,18.4-15.9,18.4C77.2,40.3,76.3,37,76.3,35.3z"/>
	<path class="st1" d="M111.6,36c-2,2.5-4.3,4.3-6.4,4.3c-2.5,0-3.2-1.4-3.4-3c-1.9-0.4-3-2-3-4.8c0-7.1,6.9-16,12.4-16
		c1.5,0,2.8,0.5,3.1,2c1.6,0.8,2.7,2.4,2.7,4.6c0,2.5-1.1,5.7-2.7,8.8c3.2-2.5,7.9-7.4,10.7-12.2c0.5,0.2,1.7,1,1.1,2.3
		c-2.2,5.2-8.3,14.4-12.9,14.4C112.6,36.5,112.1,36.3,111.6,36z M107.8,23.9c-2.2,3-4.2,7.4-4.7,12.5c2.1-0.4,4-1.8,5.5-3.7
		c-0.8-1.6-1.3-3.6-1.3-6.2C107.3,25.8,107.5,24.8,107.8,23.9z M110.9,29.2c1.6-3.3,2.5-7.1,2.5-10.2c-1.4,0.6-2.8,2.9-2.9,5.8
		C110.5,25.7,110.6,27.5,110.9,29.2z"/>
	<path class="st1" d="M130.2,36.1c-0.4-0.2-0.8-0.5-1-0.8c-1.7,2.8-3.5,5-5.4,5c-2.8,0-4-2.6-4.2-4.3c-0.9-0.5-1.5-1.3-1.5-2.5
		c0-1.7,1.6-5.5,3.6-9c2.2-3.8,4.4-7,4.9-7c1.6-0.1,3.7,1.1,3.7,2c-2.9,4.8-5.5,10-7.7,15.5c5.5-2.3,10.4-12.5,14.1-17.1
		c1.2-0.2,4,0.7,4,2.2c-2.1,3.4-5.2,10-6.9,14c6.1-2.6,11.8-10.7,14.5-14.6c0,0,1.8,0.9,1.2,2.1c-3.2,5.8-11.6,18.8-15.8,18.8
		C131.8,40.5,130.6,38,130.2,36.1z"/>
	<path class="st1" d="M148.5,37c-1.1-0.5-2.1-1.7-2.1-3.6c0-2,1.8-5.5,5.2-10.5c-0.9-0.2-1.7-0.5-2.4-0.9c-1.1,1.9-4,6.3-6.2,8.9
		c0,0.8-1.8-1.1-0.5-3.1c1.9-2.2,3.6-5,5-7c-0.7-0.7-1.1-1.4-1.1-2c0-1.6,2.2-5.5,4-5.5c1.6,0,2.9,1.2,2.9,2c-0.2,0.5-1,2-1.6,3
		c1.9,0.6,3.2,0.8,5.3,0.8c0.6-0.2,1.8,1.2,1.7,2.1c-1.2,2-5,8.5-7.1,13.2c6.3-2.3,12-10.6,14.8-14.6c0.1,0,1.8,0.9,1.1,2.1
		c-3.2,5.8-11.3,18.4-15.5,18.4C150,40.3,149,38.7,148.5,37z"/>
	<path class="st1" d="M183.7,36c-2,2.5-4.3,4.3-6.4,4.3c-2.5,0-3.2-1.4-3.4-3c-1.9-0.4-3-2-3-4.8c0-7.1,6.9-16,12.4-16
		c1.5,0,2.8,0.5,3.1,2c1.6,0.8,2.7,2.4,2.7,4.6c0,2.5-1.1,5.7-2.7,8.8c3.2-2.5,7.9-7.4,10.7-12.2c0.5,0.2,1.7,1,1.1,2.3
		c-2.2,5.2-8.3,14.4-12.9,14.4C184.8,36.5,184.3,36.3,183.7,36z M180,23.9c-2.2,3-4.2,7.4-4.7,12.5c2.1-0.4,4-1.8,5.5-3.7
		c-0.8-1.6-1.3-3.6-1.3-6.2C179.5,25.8,179.7,24.8,180,23.9z M183.1,29.2c1.6-3.3,2.5-7.1,2.5-10.2c-1.4,0.6-2.8,2.9-2.9,5.8
		C182.7,25.7,182.7,27.5,183.1,29.2z"/>
	<path class="st1" d="M204.3,34.1c-3.1,3.6-6.3,6.2-7.9,6.2c-1.9,0-2.8-2.2-3-3.9c-1.5-0.4-3-1.5-3-3.2c0-3.5,7.1-16.1,7.9-16.1
		c1.7,0,4.5,1.5,4.5,2.4c-2.9,5-5.6,10.2-7.8,15.9c2.7-0.8,5.6-3.5,8.2-6.6c-0.1-2.2,0.2-4.6,0.9-6.3c0.9-2.2,3.4-5.9,4.7-5.9
		c1.5,0,3.2,1,3.2,2.9c0,5.1-5.9,12.5-6.3,13c5.6-0.9,11.2-9.5,13.8-13c0.6,0,1.9,0.9,1.2,2.1c-1.1,1.9-8,14.9-13.5,14.9
		C205.9,36.5,205,35.5,204.3,34.1z"/>
	<path class="st1" d="M221.3,40.3c-3.2,0-5.8-1.9-6.4-5.2c-1.1-0.8-1.9-2.1-1.9-4c0-6.2,7.1-14.6,12.4-14.6c3,0,3.8,1.3,4,2.5
		c0.9,0.5,1.5,1.4,1.5,2.4c0,4.4-5.9,10.2-9.5,10.2c-1.2,0-2.4-1-2.8-2c-0.7,1.8-1.1,3.5-1.1,5.2c0.5,0.2,1,0.2,1.4,0.2
		c7,0.2,13.4-6.8,18.9-15.3c0.4,0,1.8,0.9,1.1,2.1C236.1,28,226.7,40.3,221.3,40.3z M227.9,19.7c-3.6,1-7,4.8-8.8,9
		C222.1,28,226.5,23.2,227.9,19.7z"/>
	<path class="st1" d="M242.9,36.2c-0.5-0.5-0.9-1.2-1-2.1c-0.2-2.2,2.4-7.4,4.6-11.4c-3.8,3.4-8.3,8.5-12.6,17.3c-1.7,0-3-2.1-3-4
		c0-2.1,1.8-5.6,2.9-8.1c2.5-5.8,3.9-8.1,5-10.5c2.7,0,3.8,1,3.8,2.2s-1.9,4.1-3.4,6.6c4.7-5.4,9.8-9.4,11.9-9.4
		c1.4,0,3.2,1.8,3.3,2.7c-2.3,3.9-5.1,9.3-7.3,14.6c5.9-2.8,11.3-10.5,14-14.4c0.7,0.3,1.6,1,1.2,2.1c-1.5,4-11.5,18.4-15.8,18.4
		C244.5,40.3,243.2,38,242.9,36.2z"/>
	<path class="st1" d="M254,34.8c0-0.6,0-1.2,0.2-1.8c0.9,1.2,1.9,1.9,3.4,1.9c2.4,0,4.6-2,4.6-5.1c0-2.2-0.7-4.3-1.2-6.1
		c-2.2,4-5.6,9.3-6.9,9.3c-1.3,0-1.9-1.6-1.2-2.6c2.1-2.6,4.5-5.9,7.2-9.6c-0.1-0.2-0.1-0.4-0.1-0.7c0-1.8,3.9-5.7,5.6-5.7
		c1.1,0,2.6,1.5,3.1,3.6c-0.9,1.4-2.8,2.8-3.5,4c0.7,1.5,2.4,5.9,2.4,9.2c0,0.4,0,0.7,0,1c3.7-2.8,6.4-7,10.2-12.5
		c0.3,0,1.8,0.9,1.2,2.2c-3.2,6.2-7.7,13-10.6,14.8c-1.2,0.7-2.3,1.1-3.5,1.2c-1.4,1.5-3.2,2.4-5.1,2.4
		C255.9,40.3,254,37.5,254,34.8z"/>
	<path class="st1" d="M284.5,36.9c-1.1-0.4-1.5-1.3-1.5-2.6c0-2.2,2.2-7.5,4.9-12.7c-0.4,0-0.9,0-1.2-0.1c-1.3-0.1-2.4-3-1.2-3.6
		c0.3-0.2,2.3-0.3,4.7-0.3c1.2-2.1,2.3-4,3.3-5.4c2.4,0,4.2,2,3.6,3c-0.1,0.2-0.6,1.2-1.3,2.4c1.9,0,3.4,0.1,3.7,0.3
		c0.7,0.5-0.6,3.5-2.1,3.7c-0.9,0.2-2.3,0.2-3.9,0.2c-2,4-4.5,9.1-6,13.1c6.6-2.3,13.5-11.2,16.4-15.3c0.1,0,1.6,0.9,1.2,2.1
		c-2.5,6.5-13,18.6-17.2,18.7C286.1,40.4,285,38.5,284.5,36.9z"/>
	<path class="st1" d="M310.4,36c-2,2.5-4.3,4.3-6.4,4.3c-2.5,0-3.2-1.4-3.4-3c-1.9-0.4-3-2-3-4.8c0-7.1,6.9-16,12.4-16
		c1.5,0,2.8,0.5,3,2c1.6,0.8,2.7,2.4,2.7,4.6c0,2.5-1,5.7-2.7,8.8c3.2-2.5,7.9-7.4,10.7-12.2c0.5,0.2,1.7,1,1.1,2.3
		c-2.2,5.2-8.3,14.4-12.9,14.4C311.5,36.5,311,36.3,310.4,36z M306.7,23.9c-2.2,3-4.2,7.4-4.7,12.5c2.1-0.4,4-1.8,5.5-3.7
		c-0.8-1.6-1.3-3.6-1.3-6.2C306.2,25.8,306.4,24.8,306.7,23.9z M309.8,29.2c1.6-3.3,2.5-7.1,2.5-10.2c-1.4,0.6-2.8,2.9-2.9,5.8
		C309.4,25.7,309.4,27.5,309.8,29.2z"/>
	<path class="st1" d="M330.4,48.4c0-2.5,2.5-4.5,5.2-6.7c1.3-3.2,3.2-6.8,5-10.4c-2.2,3.7-5.5,8.4-8.1,8.4c-2.8,0.1-3.3-2.6-3.3-4.3
		c-0.5-0.5-0.8-1.2-0.8-2.2c0-3.5,3.5-9.4,7.3-15.7c1.8,0,4.1,1.1,4.1,2c0,0.9-5,9.3-7.7,15.4c5.8-2.1,11.5-12.2,14.6-16.8
		c0.4,0,4.2,0.3,3.8,2.8c-3.1,5.1-6,10.2-8.6,15.5c4.3-3.9,8.9-8.4,14.4-15.4c0.4,0,1.3,0.6,1.3,1.5c0,3.3-10.9,14.2-18.8,20.3
		c-1.3,3-2.5,6-3.6,9.1C332.2,51.9,330.4,50.6,330.4,48.4z"/>
	<path class="st1" d="M363,36c-2,2.5-4.3,4.3-6.4,4.3c-2.5,0-3.2-1.4-3.4-3c-1.9-0.4-3-2-3-4.8c0-7.1,6.9-16,12.4-16
		c1.5,0,2.8,0.5,3,2c1.6,0.8,2.7,2.4,2.7,4.6c0,2.5-1,5.7-2.7,8.8c3.2-2.5,7.9-7.4,10.7-12.2c0.5,0.2,1.7,1,1.1,2.3
		c-2.2,5.2-8.3,14.4-12.9,14.4C364.1,36.5,363.6,36.3,363,36z M359.3,23.9c-2.2,3-4.2,7.4-4.7,12.5c2.1-0.4,4-1.8,5.5-3.7
		c-0.8-1.6-1.3-3.6-1.3-6.2C358.8,25.8,359,24.8,359.3,23.9z M362.4,29.2c1.6-3.3,2.5-7.1,2.5-10.2c-1.4,0.6-2.8,2.9-2.9,5.8
		C362,25.7,362,27.5,362.4,29.2z"/>
	<path class="st1" d="M381.7,36.1c-0.4-0.2-0.8-0.5-1-0.8c-1.7,2.8-3.5,5-5.4,5c-2.8,0-4-2.6-4.2-4.3c-0.9-0.5-1.5-1.3-1.5-2.5
		c0-1.7,1.6-5.5,3.6-9c2.2-3.8,4.4-7,4.8-7c1.7-0.1,3.7,1.1,3.7,2c-2.9,4.8-5.5,10-7.7,15.5c5.5-2.3,10.4-12.5,14.1-17.1
		c1.2-0.2,4,0.7,4,2.2c-2.1,3.4-5.2,10-6.9,14c6.1-2.6,11.8-10.7,14.5-14.6c0,0,1.8,0.9,1.2,2.1c-3.2,5.8-11.6,18.8-15.8,18.8
		C383.2,40.5,382,38,381.7,36.1z"/>
	<path class="st1" d="M400,37c-1.2-0.5-2.2-1.7-2.2-3.6c0-2,1.8-5.5,5.2-10.5c-0.9-0.2-1.7-0.5-2.4-0.9c-1.1,1.9-4,6.3-6.2,8.9
		c0,0.8-1.8-1.1-0.5-3.1c1.9-2.2,3.6-5,4.9-7c-0.7-0.7-1.1-1.4-1.1-2c0-1.6,2.2-5.5,4-5.5c1.5,0,2.9,1.2,2.9,2c-0.2,0.5-1,2-1.5,3
		c1.8,0.6,3.2,0.8,5.2,0.8c0.6-0.2,1.8,1.2,1.7,2.1c-1.3,2-5,8.5-7.1,13.2c6.2-2.3,12-10.6,14.8-14.6c0.1,0,1.8,0.9,1.1,2.1
		c-3.2,5.8-11.2,18.4-15.5,18.4C401.4,40.3,400.4,38.7,400,37z"/>
	<path class="st1" d="M433.8,36c-0.2-0.1-0.6-0.2-0.8-0.3c-2,2.7-4,4.6-5.2,4.6c-2.6,0-3.6-3-3.8-4.8c-1.1-0.7-1.7-2-1.7-3.8
		c0-7.8,7.1-15.2,11.6-15.2c2.9,0,4.2,1.6,4.4,3.1l0.3,0.2c2.5-5.2,5.2-10.5,6.9-13.5c3,0,4,1.8,4,3.5c0,3.2-5.2,11.1-8.3,14.6
		c-2.1,3.4-3.4,6.4-4.7,10.3c6.5-2.2,12.4-11.1,15.5-15.2c0,0,1.8,1,1.2,2.1c-3.3,5.7-11.7,18.7-15.9,18.7
		C435.4,40.3,434.1,37.8,433.8,36z M437.3,20.2c-6.6,0.9-11,10.3-11.7,14.6C431.5,32.9,435.9,23.9,437.3,20.2z"/>
	<path class="st1" d="M458.7,36c-2,2.5-4.3,4.3-6.4,4.3c-2.5,0-3.2-1.4-3.4-3c-1.9-0.4-3-2-3-4.8c0-7.1,6.8-16,12.4-16
		c1.4,0,2.8,0.5,3,2c1.6,0.8,2.7,2.4,2.7,4.6c0,2.5-1,5.7-2.7,8.8c3.2-2.5,7.9-7.4,10.7-12.2c0.5,0.2,1.7,1,1.1,2.3
		c-2.2,5.2-8.3,14.4-12.9,14.4C459.8,36.5,459.3,36.3,458.7,36z M455,23.9c-2.2,3-4.2,7.4-4.7,12.5c2.1-0.4,4-1.8,5.5-3.7
		c-0.8-1.6-1.3-3.6-1.3-6.2C454.5,25.8,454.7,24.8,455,23.9z M458.1,29.2c1.6-3.3,2.5-7.1,2.5-10.2c-1.3,0.6-2.8,2.9-2.8,5.8
		C457.7,25.7,457.7,27.5,458.1,29.2z"/>
	<path class="st1" d="M478.7,36c-2,2.5-4.3,4.3-6.4,4.3c-2.5,0-3.2-1.4-3.4-3c-1.9-0.4-3-2-3-4.8c0-7.1,6.9-16,12.4-16
		c1.5,0,2.8,0.5,3,2c1.6,0.8,2.7,2.4,2.7,4.6c0,2.5-1,5.7-2.7,8.8c3.2-2.5,7.9-7.4,10.7-12.2c0.5,0.2,1.7,1,1.1,2.3
		c-2.2,5.2-8.3,14.4-12.9,14.4C479.8,36.5,479.3,36.3,478.7,36z M475,23.9c-2.2,3-4.2,7.4-4.7,12.5c2.1-0.4,4-1.8,5.5-3.7
		c-0.8-1.6-1.3-3.6-1.3-6.2C474.5,25.8,474.7,24.8,475,23.9z M478.1,29.2c1.6-3.3,2.5-7.1,2.5-10.2c-1.4,0.6-2.8,2.9-2.9,5.8
		C477.7,25.7,477.7,27.5,478.1,29.2z"/>
	<path class="st1" d="M492.3,37c-1.2-0.5-2.2-1.7-2.2-3.6c0-2,1.8-5.5,5.2-10.5c-0.9-0.2-1.7-0.5-2.4-0.9c-1.1,1.9-4,6.3-6.2,8.9
		c0,0.8-1.8-1.1-0.5-3.1c1.9-2.2,3.6-5,5-7c-0.7-0.7-1.1-1.4-1.1-2c0-1.6,2.2-5.5,3.9-5.5c1.6,0,2.9,1.2,2.9,2c-0.2,0.5-1,2-1.5,3
		c1.9,0.6,3.2,0.8,5.3,0.8c0.6-0.2,1.8,1.2,1.7,2.1c-1.2,2-5,8.5-7.1,13.2c6.2-2.3,12-10.6,14.8-14.6c0.1,0,1.8,0.9,1.1,2.1
		c-3.2,5.8-11.2,18.4-15.5,18.4C493.7,40.3,492.7,38.7,492.3,37z"/>
</g>
</svg>
