<svg xmlns="http://www.w3.org/2000/svg" width="174.393" height="53.611" viewBox="0 0 174.393 53.611"><defs><style>.a{fill:#cf001c;}</style></defs><g transform="translate(426.285 -637.921)"><path class="a" d="M-350.513,679.248l-23.76-3,.511-4.043,23.249,2.937,23.234-2.935.511,4.043Z" transform="translate(18.635 12.283)"/><g transform="translate(-426.285 637.921)"><path class="a" d="M-418.884,665.066q-1.681.308-3.36.628-2.021-10.588-4.041-21.177,1.762-.336,3.525-.657.829,4.543,1.661,9.088,1.962-.361,3.93-.7-.793-4.552-1.582-9.1,1.795-.312,3.6-.61,1.762,10.633,3.526,21.268-1.716.285-3.43.583-.79-4.551-1.582-9.1-1.952.338-3.9.7Q-419.714,660.522-418.884,665.066Z" transform="translate(426.285 -636.268)"/><path class="a" d="M-413.437,647.3c-.528-3.406,1.069-5.656,4.554-6.152s5.645,1.224,6.084,4.644q.721,5.558,1.444,11.117c.44,3.423-1.122,5.6-4.432,6.073s-5.42-1.191-5.948-4.6Q-412.587,652.837-413.437,647.3Zm5.149,10.783c.221,1.524.986,2,2.067,1.849s1.683-.825,1.474-2.351q-.794-5.766-1.588-11.533c-.209-1.525-.994-2.009-2.115-1.85s-1.741.842-1.519,2.365Q-409.128,652.319-408.288,658.08Z" transform="translate(430.853 -636.796)"/><path class="a" d="M-392.953,649.853q-.057,5.778-.083,11.556-2.327.24-4.653.507-2.423-10.574-4.96-21.125,1.726-.208,3.454-.4,1.9,8.341,3.728,16.693-.086-8.541-.11-17.084,1.711-.177,3.427-.344,1.714,8.435,3.362,16.881.1-8.608.261-17.218,1.552-.139,3.106-.265-.381,10.845-.642,21.69-2.253.2-4.505.417Q-391.745,655.5-392.953,649.853Z" transform="translate(434.753 -637.515)"/><path class="a" d="M-380.182,638.436q1.783-.1,3.565-.178.5,10.77.989,21.537-1.7.077-3.4.168Z" transform="translate(442.803 -637.8)"/><path class="a" d="M-374.021,638.183q5.513-.2,11.029-.262.018,1.54.037,3.081-1.854.022-3.707.058.185,9.238.369,18.475-1.7.035-3.4.081-.257-9.236-.511-18.473-1.852.051-3.705.118Q-373.967,639.722-374.021,638.183Z" transform="translate(445.01 -637.921)"/><path class="a" d="M-348.471,648.2q-.823,5.721-1.615,11.444-2.337-.071-4.674-.117-.994-10.8-2.105-21.6,1.734.024,3.47.063.772,8.518,1.476,17.04,1.047-8.476,2.157-16.947,1.72.051,3.439.114.577,8.588,1.088,17.178,1.237-8.518,2.544-17.03,1.557.069,3.112.149-1.817,10.7-3.517,21.413-2.257-.1-4.516-.185Q-348.025,653.965-348.471,648.2Z" transform="translate(451.157 -637.917)"/><path class="a" d="M-340.7,643.685c.206-3.442,2.24-5.3,5.745-5.047s5.247,2.395,4.951,5.83q-.475,5.584-.948,11.169c-.3,3.439-2.283,5.24-5.612,5s-5.031-2.313-4.825-5.759Zm2.736,11.628c-.106,1.538.538,2.167,1.626,2.247s1.816-.45,1.934-1.986q.448-5.8.9-11.608c.12-1.535-.543-2.173-1.671-2.256s-1.876.454-1.982,1.99Z" transform="translate(456.696 -637.672)"/><path class="a" d="M-323.05,661.7a6.617,6.617,0,0,1-.012-2.668q.189-1.683.378-3.367c.224-1.989-.384-2.8-1.957-2.971-.4-.043-.8-.086-1.194-.126q-.454,4.364-.911,8.73-1.7-.177-3.392-.342,1.037-10.729,2.077-21.458,2.683.259,5.365.55c3.686.4,5.072,2.225,4.672,5.524q-.1.841-.2,1.682c-.265,2.2-1.164,3.551-2.79,4.076,1.654.9,2.022,2.6,1.755,4.827q-.2,1.65-.4,3.3a6.307,6.307,0,0,0,.057,2.643Q-321.325,661.895-323.05,661.7Zm-1.777-18.781-.689,6.585,1.36.145c1.3.138,2.149-.322,2.343-2.036l.236-2.114c.172-1.528-.3-2.264-1.55-2.4Q-323.976,643.008-324.827,642.919Z" transform="translate(460.732 -637.356)"/><path class="a" d="M-313.115,654.338q-.672.9-1.338,1.8l-.918,6.558q-1.691-.236-3.382-.46,1.412-10.686,2.825-21.372,1.773.234,3.545.482-.652,4.651-1.3,9.3,2.924-4.334,5.938-8.63,1.771.267,3.538.546-3.209,4.356-6.32,8.755,1.542,6.265,2.956,12.538-1.734-.273-3.468-.534Q-312.045,658.83-313.115,654.338Z" transform="translate(464.811 -636.867)"/><path class="a" d="M-298.93,643.138c3.438.617,4.829,2.9,4.178,6.285l-.126.664q-1.644-.314-3.29-.615l.16-.877c.278-1.514-.253-2.207-1.369-2.408s-1.855.266-2.12,1.782c-.751,4.357,5.851,6.411,4.677,12.472-.652,3.39-2.73,4.992-6.025,4.4s-4.689-2.81-4.124-6.215c.072-.435.145-.871.217-1.305q1.618.269,3.231.551l-.265,1.517c-.263,1.517.318,2.181,1.395,2.373s1.853-.228,2.131-1.743c.812-4.376-5.763-6.372-4.768-12.434C-304.462,644.183-302.369,642.524-298.93,643.138Z" transform="translate(468.989 -636.097)"/></g></g></svg>